{"title":"[KSHOWNOW] Running Man EP122 720P","uid":7892696,"size":1863130980,"categoryP":"video","categoryS":"hd___tv_shows","magnet":"?xt=urn:btih:b5e50df9f031935df5605c6f8d2324c11a99b0cc&amp;dn=%5BKSHOWNOW%5D+Running+Man+EP122+720P&amp;tr=udp%3A%2F%2Ftracker.openbittorrent.com%3A80&amp;tr=udp%3A%2F%2Fopen.demonii.com%3A1337&amp;tr=udp%3A%2F%2Ftracker.coppersurfer.tk%3A6969&amp;tr=udp%3A%2F%2Fexodus.desync.com%3A6969","seeders":1,"leechers":0,"uploader":"adrianyujs","files":1,"time":1354763905,"description":"This is KSHOWNOW version\n\n\n\n\nFormat : AVI\n\nFormat/Info : Audio Video Interleave\n\nFile size : 1.74 GiB\n\nDuration : 1h 33mn\n\nOverall bit rate : 2 646 Kbps\n\nWriting application : Kirara Encoder\n\nWriting library : VirtualDub build 34807/release\n\n\n\nVideo\n\nID : 0\n\nFormat : AVC\n\nFormat/Info : Advanced Video Codec\n\nFormat profile : &lt;a class=&quot;__cf_email__&quot; href=&quot;/cdn-cgi/l/email-protection&quot; data-cfemail=&quot;5e163739361e126a706f&quot;&gt;[email&amp;#160;protected]&lt;/a&gt;&lt;script cf-hash='f9e31' type=&quot;text/javascript&quot;&gt;\n/* &lt;![CDATA[ */!function(){try{var t=&quot;currentScript&quot;in document?document.currentScript:function(){for(var t=document.getElementsByTagName(&quot;script&quot;),e=t.length;e--;)if(t[e].getAttribute(&quot;cf-hash&quot;))return t[e]}();if(t&amp;&amp;t.previousSibling){var e,r,n,i,c=t.previousSibling,a=c.getAttribute(&quot;data-cfemail&quot;);if(a){for(e=&quot;&quot;,r=parseInt(a.substr(0,2),16),n=2;a.length-n;n+=2)i=parseInt(a.substr(n,2),16)^r,e+=String.fromCharCode(i);e=document.createTextNode(e),c.parentNode.replaceChild(e,c)}}}catch(u){}}();/* ]]&gt; */&lt;/script&gt;\n\nFormat settings, CABAC : Yes\n\nFormat settings, ReFrames : 4 frames\n\nCodec ID : H264\n\nDuration : 1h 33mn\n\nBit rate : 2 442 Kbps\n\nWidth : 1 280 pixels\n\nHeight : 720 pixels\n\nDisplay aspect ratio : 16:9\n\nFrame rate : 29.970 fps\n\nColor space : YUV\n\nChroma subsampling : 4:2:0\n\nBit depth : 8 bits\n\nScan type : Progressive\n\nBits/(Pixel*Frame) : 0.088\n\nStream size : 1.60 GiB (92%)\n\nWriting library : x264 core 125 r2200bm 999b753\n\n\n\nAudio\n\nID : 1\n\nFormat : AC-3\n\nFormat/Info : Audio Coding 3\n\nMode extension : CM (complete main)\n\nCodec ID : 2000\n\nDuration : 1h 33mn\n\nBit rate mode : Constant\n\nBit rate : 192 Kbps\n\nChannel(s) : 2 channels\n\nChannel positions : Front: L R\n\nSampling rate : 48.0 KHz\n\nBit depth : 16 bits\n\nCompression mode : Lossy\n\nStream size : 129 MiB (7%)\n\nAlignment : Aligned on interleaves\n\nInterleave, duration : 32 ms (0.96 video frame)\n\nInterleave, preload duration : 512 ms","torrent":{"xt":"urn:btih:b5e50df9f031935df5605c6f8d2324c11a99b0cc","amp;dn":"%5BKSHOWNOW%5D+Running+Man+EP122+720P","amp;tr":["udp%3A%2F%2Ftracker.openbittorrent.com%3A80","udp%3A%2F%2Fopen.demonii.com%3A1337","udp%3A%2F%2Ftracker.coppersurfer.tk%3A6969","udp%3A%2F%2Fexodus.desync.com%3A6969"],"infoHash":"b5e50df9f031935df5605c6f8d2324c11a99b0cc","infoHashBuffer":{"type":"Buffer","data":[181,229,13,249,240,49,147,93,245,96,92,111,141,35,36,193,26,153,176,204]},"announce":[],"urlList":[]}}